<svg width="32" height="32" viewBox="0 0 32 32" fill="none" xmlns="http://www.w3.org/2000/svg">
<path d="M30 7.99997C30 6.9391 29.5786 5.92169 28.8284 5.17154C28.0783 4.4214 27.0609 3.99997 26 3.99997H25V3.02809C25 2.48997 24.5862 2.02809 24.0481 2.00122C23.9129 1.99471 23.7778 2.01571 23.6509 2.06296C23.5241 2.11021 23.4081 2.18273 23.3102 2.27611C23.2122 2.36949 23.1341 2.4818 23.0808 2.60622C23.0275 2.73065 23 2.8646 23 2.99997V3.99997H9V3.02809C9 2.48997 8.58625 2.02809 8.04813 2.00122C7.91292 1.99471 7.77779 2.01571 7.65094 2.06296C7.52409 2.11021 7.40815 2.18273 7.31015 2.27611C7.21215 2.36949 7.13413 2.4818 7.08082 2.60622C7.02751 2.73065 7.00001 2.8646 7 2.99997V3.99997H6C4.93913 3.99997 3.92172 4.4214 3.17157 5.17154C2.42143 5.92169 2 6.9391 2 7.99997V8.74997C2 8.81627 2.02634 8.87986 2.07322 8.92675C2.12011 8.97363 2.1837 8.99997 2.25 8.99997H29.75C29.8163 8.99997 29.8799 8.97363 29.9268 8.92675C29.9737 8.87986 30 8.81627 30 8.74997V7.99997ZM2 26C2 27.0608 2.42143 28.0783 3.17157 28.8284C3.92172 29.5785 4.93913 30 6 30H26C27.0609 30 28.0783 29.5785 28.8284 28.8284C29.5786 28.0783 30 27.0608 30 26V11.1875C30 11.1377 29.9802 11.09 29.9451 11.0549C29.9099 11.0197 29.8622 11 29.8125 11H2.1875C2.13777 11 2.09008 11.0197 2.05492 11.0549C2.01975 11.09 2 11.1377 2 11.1875V26ZM23.5 13C23.7967 13 24.0867 13.0879 24.3334 13.2528C24.58 13.4176 24.7723 13.6519 24.8858 13.9259C24.9993 14.2 25.0291 14.5016 24.9712 14.7926C24.9133 15.0836 24.7704 15.3509 24.5607 15.5606C24.3509 15.7704 24.0836 15.9133 23.7926 15.9711C23.5017 16.029 23.2001 15.9993 22.926 15.8858C22.6519 15.7723 22.4176 15.58 22.2528 15.3333C22.088 15.0867 22 14.7966 22 14.5C22 14.1021 22.158 13.7206 22.4393 13.4393C22.7206 13.158 23.1022 13 23.5 13ZM23.5 18C23.7967 18 24.0867 18.0879 24.3334 18.2528C24.58 18.4176 24.7723 18.6519 24.8858 18.9259C24.9993 19.2 25.0291 19.5016 24.9712 19.7926C24.9133 20.0836 24.7704 20.3509 24.5607 20.5606C24.3509 20.7704 24.0836 20.9133 23.7926 20.9711C23.5017 21.029 23.2001 20.9993 22.926 20.8858C22.6519 20.7723 22.4176 20.58 22.2528 20.3333C22.088 20.0867 22 19.7966 22 19.5C22 19.1021 22.158 18.7206 22.4393 18.4393C22.7206 18.158 23.1022 18 23.5 18ZM18.5 13C18.7967 13 19.0867 13.0879 19.3334 13.2528C19.58 13.4176 19.7723 13.6519 19.8858 13.9259C19.9993 14.2 20.0291 14.5016 19.9712 14.7926C19.9133 15.0836 19.7704 15.3509 19.5607 15.5606C19.3509 15.7704 19.0836 15.9133 18.7926 15.9711C18.5017 16.029 18.2001 15.9993 17.926 15.8858C17.6519 15.7723 17.4176 15.58 17.2528 15.3333C17.088 15.0867 17 14.7966 17 14.5C17 14.1021 17.158 13.7206 17.4393 13.4393C17.7206 13.158 18.1022 13 18.5 13ZM18.5 18C18.7967 18 19.0867 18.0879 19.3334 18.2528C19.58 18.4176 19.7723 18.6519 19.8858 18.9259C19.9993 19.2 20.0291 19.5016 19.9712 19.7926C19.9133 20.0836 19.7704 20.3509 19.5607 20.5606C19.3509 20.7704 19.0836 20.9133 18.7926 20.9711C18.5017 21.029 18.2001 20.9993 17.926 20.8858C17.6519 20.7723 17.4176 20.58 17.2528 20.3333C17.088 20.0867 17 19.7966 17 19.5C17 19.1021 17.158 18.7206 17.4393 18.4393C17.7206 18.158 18.1022 18 18.5 18ZM18.5 23C18.7967 23 19.0867 23.0879 19.3334 23.2528C19.58 23.4176 19.7723 23.6519 19.8858 23.9259C19.9993 24.2 20.0291 24.5016 19.9712 24.7926C19.9133 25.0836 19.7704 25.3509 19.5607 25.5606C19.3509 25.7704 19.0836 25.9133 18.7926 25.9711C18.5017 26.029 18.2001 25.9993 17.926 25.8858C17.6519 25.7723 17.4176 25.58 17.2528 25.3333C17.088 25.0867 17 24.7966 17 24.5C17 24.1021 17.158 23.7206 17.4393 23.4393C17.7206 23.158 18.1022 23 18.5 23ZM13.5 18C13.7967 18 14.0867 18.0879 14.3334 18.2528C14.58 18.4176 14.7723 18.6519 14.8858 18.9259C14.9994 19.2 15.0291 19.5016 14.9712 19.7926C14.9133 20.0836 14.7704 20.3509 14.5607 20.5606C14.3509 20.7704 14.0836 20.9133 13.7926 20.9711C13.5017 21.029 13.2001 20.9993 12.926 20.8858C12.6519 20.7723 12.4176 20.58 12.2528 20.3333C12.088 20.0867 12 19.7966 12 19.5C12 19.1021 12.158 18.7206 12.4393 18.4393C12.7206 18.158 13.1022 18 13.5 18ZM13.5 23C13.7967 23 14.0867 23.0879 14.3334 23.2528C14.58 23.4176 14.7723 23.6519 14.8858 23.9259C14.9994 24.2 15.0291 24.5016 14.9712 24.7926C14.9133 25.0836 14.7704 25.3509 14.5607 25.5606C14.3509 25.7704 14.0836 25.9133 13.7926 25.9711C13.5017 26.029 13.2001 25.9993 12.926 25.8858C12.6519 25.7723 12.4176 25.58 12.2528 25.3333C12.088 25.0867 12 24.7966 12 24.5C12 24.1021 12.158 23.7206 12.4393 23.4393C12.7206 23.158 13.1022 23 13.5 23ZM8.5 18C8.79667 18 9.08668 18.0879 9.33335 18.2528C9.58003 18.4176 9.77229 18.6519 9.88582 18.9259C9.99935 19.2 10.0291 19.5016 9.97118 19.7926C9.9133 20.0836 9.77044 20.3509 9.56066 20.5606C9.35088 20.7704 9.08361 20.9133 8.79264 20.9711C8.50166 21.029 8.20006 20.9993 7.92597 20.8858C7.65189 20.7723 7.41762 20.58 7.2528 20.3333C7.08797 20.0867 7 19.7966 7 19.5C7 19.1021 7.15804 18.7206 7.43934 18.4393C7.72064 18.158 8.10218 18 8.5 18ZM8.5 23C8.79667 23 9.08668 23.0879 9.33335 23.2528C9.58003 23.4176 9.77229 23.6519 9.88582 23.9259C9.99935 24.2 10.0291 24.5016 9.97118 24.7926C9.9133 25.0836 9.77044 25.3509 9.56066 25.5606C9.35088 25.7704 9.08361 25.9133 8.79264 25.9711C8.50166 26.029 8.20006 25.9993 7.92597 25.8858C7.65189 25.7723 7.41762 25.58 7.2528 25.3333C7.08797 25.0867 7 24.7966 7 24.5C7 24.1021 7.15804 23.7206 7.43934 23.4393C7.72064 23.158 8.10218 23 8.5 23Z" fill="#1FB5D6"/>
</svg>
