
<svg width="36" height="36" viewBox="0 0 36 36" fill="none" xmlns="http://www.w3.org/2000/svg">
<circle opacity="0.15" cx="18" cy="18" r="18" fill="#1EBFE3"/>
<path d="M23.2208 22.0107C22.3713 21.7509 21.5778 21.3629 20.8672 20.8599C20.5203 20.6094 20.0071 20.585 19.6965 20.7554L17.7762 21.4561C16.2622 19.9369 15.4884 18.4819 15.085 16.3948L16.6928 15.2249C17.0805 15.0191 17.3195 14.6184 17.3162 14.1729C17.2969 13.2981 17.4186 12.4236 17.6785 11.5737C17.8663 10.9598 17.5196 10.3076 16.9057 10.1198L14.3575 9.34051C13.7436 9.15276 13.0914 9.49948 12.9036 10.1134C10.7515 17.1505 14.7256 24.6263 21.7626 26.7785C22.3765 26.9662 23.0288 26.6195 23.2165 26.0056L23.9937 23.4645C24.1814 22.8506 23.8347 22.1984 23.2208 22.0107Z" fill="#1EBFE3"/>
</svg>
