<svg width="36" height="36" viewBox="0 0 36 36" fill="none" xmlns="http://www.w3.org/2000/svg">
<circle opacity="0.15" cx="18" cy="18" r="18" fill="#1EBFE3"/>
<path d="M25.9691 14.4365H23.7217V12.304C23.7217 12.0795 23.6529 11.855 23.5155 11.6726L21.866 9.42089C21.6667 9.15433 21.3643 9 21.0344 9H13.3093C12.7388 9 12.2784 9.46999 12.2784 10.0522V14.4365H10.0309C9.46048 14.4365 9 14.9065 9 15.4887V22.1738C9 22.756 9.46048 23.226 10.0309 23.226H12.2784V25.9478C12.2784 26.53 12.7388 27 13.3093 27H22.6838C23.2543 27 23.7148 26.53 23.7148 25.9478V23.226H25.9622C26.5326 23.226 26.9931 22.756 26.9931 22.1738V15.4887C27 14.9065 26.5326 14.4365 25.9691 14.4365ZM14.3402 11.1044H20.5189L21.6529 12.6547V14.4365H14.3402V11.1044ZM21.6598 23.226V24.8956H14.3402V23.226V21.1216V19.88H21.6529V21.1216V23.226H21.6598ZM24.9381 21.1216H23.7217V18.8277C23.7217 18.2455 23.2612 17.7755 22.6907 17.7755H13.3093C12.7388 17.7755 12.2784 18.2455 12.2784 18.8277V21.1216H11.0619V16.5409H13.3093H22.6838H24.9313V21.1216H24.9381Z" fill="#1EBFE3"/>
</svg>
