<svg width="36" height="36" viewBox="0 0 36 36" fill="none" xmlns="http://www.w3.org/2000/svg">
<circle opacity="0.15" cx="18" cy="18" r="18" fill="#1EBFE3"/>
<path d="M23.2203 22.0107C22.3708 21.7509 21.5773 21.3629 20.8668 20.8599C20.5198 20.6094 20.0066 20.585 19.696 20.7554L17.7757 21.4561C16.2617 19.9369 15.4879 18.4819 15.0845 16.3948L16.6923 15.2249C17.08 15.0191 17.319 14.6184 17.3157 14.1729C17.2964 13.2981 17.4181 12.4236 17.678 11.5737C17.8658 10.9598 17.5191 10.3076 16.9052 10.1198L14.357 9.34051C13.7431 9.15276 13.0909 9.49948 12.9031 10.1134C10.751 17.1505 14.7251 24.6263 21.7621 26.7785C22.3761 26.9662 23.0283 26.6195 23.216 26.0056L23.9932 23.4645C24.1809 22.8506 23.8342 22.1984 23.2203 22.0107Z" fill="#1EBFE3"/>
</svg>
