<svg width="52" height="52" viewBox="0 0 52 52" fill="none" xmlns="http://www.w3.org/2000/svg">
<path d="M19.5 26C19.5 29.4667 20.0417 32.825 21.06 35.9667H27.7767C28.6434 35.9667 29.38 36.465 29.7267 37.18C30.7884 39.3033 32.1534 41.2317 33.735 42.965C34.125 43.3333 34.3634 43.875 34.3634 44.4167C34.3634 45.0667 34.1034 45.6083 33.7134 45.9983L28.34 51.3717C27.9365 51.7719 27.3918 51.9976 26.8234 52C26.2167 52 25.675 51.7617 25.285 51.3717C19.0017 44.7633 15.1667 35.8367 15.1667 26C15.1667 16.1633 19.0017 7.23667 25.285 0.628334C25.675 0.238335 26.2167 0 26.8234 0C27.4084 0 27.95 0.238335 28.34 0.628334L33.7134 6.00167C34.1034 6.39167 34.3634 6.93333 34.3634 7.58333C34.3543 8.13764 34.1288 8.66641 33.735 9.05667C32.1534 10.7683 30.7884 12.6967 29.7267 14.82C29.548 15.1847 29.2705 15.4918 28.9257 15.7063C28.5809 15.9208 28.1828 16.0341 27.7767 16.0333H21.06C20.0417 19.175 19.5 22.5333 19.5 26Z" fill="#00D0FF"/>
</svg>
