<svg width="220" height="227" viewBox="0 0 220 227" fill="none" xmlns="http://www.w3.org/2000/svg">
<g clip-path="url(#clip0_1_178)">
<path d="M101.612 165.983L110.698 161.746L124.526 191.402L115.441 195.638L101.612 165.983Z" fill="#D5D2D2" fill-opacity="0.12"/>
<path d="M142.364 122.91L78.7645 152.568C75.1492 154.249 70.9558 154.301 67.1044 152.712C63.2531 151.124 60.0584 148.025 58.2216 144.095L32.8692 89.7266L23.7835 93.9634L49.1359 148.332C52.1983 154.88 57.5227 160.044 63.9412 162.692C70.3598 165.339 77.3483 165.253 83.374 162.453L146.974 132.796C150.289 131.261 153.934 130.55 157.645 130.714L143.982 173.821L153.664 177.814L167.78 133.281C173.592 136.029 178.376 140.885 181.212 146.917L188.126 161.744L197.212 157.508L190.298 142.68C186.009 133.514 178.555 126.285 169.569 122.579C160.584 118.873 150.801 118.992 142.364 122.91Z" fill="#D5D2D2" fill-opacity="0.12"/>
<path d="M124.999 34.9659L88.5894 39.9094C87.6544 40.036 86.7888 40.4397 86.0908 41.0745L58.9003 65.7882C57.9329 66.6688 57.3521 67.9343 57.2804 69.3182C57.2086 70.702 57.6515 72.0961 58.5157 73.2064L71.867 90.3337L76.1931 99.611C78.3117 104.154 81.2322 108.27 84.7877 111.722C88.3431 115.175 92.464 117.897 96.9151 119.732C101.366 121.568 106.06 122.482 110.729 122.421C115.398 122.361 119.95 121.328 124.126 119.38C128.302 117.433 132.02 114.61 135.068 111.072C138.115 107.534 140.432 103.351 141.887 98.7615C143.342 94.1718 143.906 89.2655 143.546 84.3226C143.187 79.3798 141.912 74.4973 139.793 69.9538L135.467 60.6766L130.931 39.4445C130.637 38.0675 129.854 36.8306 128.747 35.995C127.64 35.1594 126.296 34.7904 124.999 34.9659ZM91.9519 50.382L122.094 46.291L124.792 58.8967L105.622 67.8363L101.012 57.9511L91.9264 62.1878L96.5359 72.073L77.3696 81.0104L69.4428 70.8429L91.9519 50.382ZM119.517 109.495C113.491 112.296 106.503 112.381 100.084 109.734C93.6656 107.087 88.3412 101.923 85.2788 95.3742L82.974 90.4316L128.403 69.2479L130.707 74.1905C133.755 80.7457 134.289 88.144 132.191 94.7625C130.093 101.381 125.535 106.679 119.517 109.495Z" fill="#D5D2D2" fill-opacity="0.12"/>
</g>
<defs>
<clipPath id="clip0_1_178">
<rect width="160.4" height="174.513" fill="white" transform="translate(0.869232 68.5447) rotate(-25)"/>
</clipPath>
</defs>
</svg>
