<svg width="232" height="232" viewBox="0 0 232 232" fill="none" xmlns="http://www.w3.org/2000/svg">
    <g clip-path="url(#clip0_1_176)">
    <path fill-rule="evenodd" clip-rule="evenodd" d="M75.7401 48.2168L89.6175 41.7457C101.694 36.1141 111.261 31.6529 119.214 29.1684C127.399 26.6156 134.652 25.8894 141.865 28.5093C143.172 29.0376 144.222 30.0522 144.795 31.3394C145.367 32.6266 145.418 34.0859 144.936 35.4099C144.454 36.7338 143.477 37.819 142.211 38.4369C140.945 39.0547 139.488 39.157 138.148 38.7221C134.069 37.2484 129.48 37.3566 122.456 39.5519C115.285 41.7918 106.376 45.9304 93.8455 51.7734L80.704 57.9014C68.1736 63.7444 59.283 67.9061 52.9445 71.9657C46.7546 75.9321 43.7218 79.3782 42.2384 83.4537C40.7551 87.5291 40.8632 92.1184 43.0586 99.1422C45.3016 106.32 49.4371 115.223 55.2801 127.753L67.536 154.036C73.379 166.566 77.5439 175.464 81.6004 181.795C85.5667 187.985 89.0128 191.018 93.0883 192.502C97.1638 193.985 101.753 193.877 108.777 191.681C115.954 189.438 124.857 185.303 137.388 179.46L150.529 173.332C163.06 167.489 171.957 163.324 178.289 159.268C184.479 155.301 187.511 151.855 188.995 147.78C191.435 141.074 189.51 133.324 181.988 116.577C181.398 115.261 181.355 113.765 181.868 112.417C182.381 111.069 183.408 109.98 184.724 109.39C186.04 108.799 187.537 108.756 188.885 109.269C190.233 109.782 191.321 110.81 191.912 112.126C199.118 128.18 203.39 140.035 199.217 151.5C196.588 158.71 191.369 163.799 184.152 168.428C177.131 172.927 167.57 177.385 155.493 183.016L141.616 189.488C129.539 195.119 119.972 199.58 112.019 202.065C103.834 204.618 96.581 205.344 89.3676 202.724C82.1578 200.094 77.0686 194.876 72.4394 187.659C67.9412 180.637 63.4831 171.077 57.8515 159L45.2524 131.981C39.6208 119.904 35.1596 110.337 32.6751 102.384C30.1223 94.1992 29.396 86.9463 32.016 79.733C34.6456 72.5232 39.864 67.434 47.0808 62.8048C54.1027 58.3065 63.6631 53.8484 75.7401 48.2168ZM140.611 64.332C141.452 61.8467 142.781 59.5544 144.52 57.5898C146.259 55.6253 148.373 54.0281 150.738 52.8922C153.104 51.7562 155.672 51.1044 158.292 50.9749C160.913 50.8455 163.533 51.2411 165.998 52.1385C168.464 53.0358 170.725 54.4169 172.65 56.2005C174.574 57.9841 176.122 60.1343 177.204 62.5247C178.285 64.9152 178.878 67.4977 178.948 70.1205C179.017 72.7433 178.562 75.3536 177.608 77.798L160.946 123.621C160.285 125.596 159.503 127.529 158.605 129.408C157.646 131.296 156.475 133.074 155.126 134.711C153.982 136.1 152.671 137.336 150.749 139.151L139.186 150.103C137.934 151.291 136.376 152.106 134.687 152.457C132.998 152.809 131.245 152.682 129.624 152.092C128.003 151.502 126.578 150.472 125.51 149.117C124.442 147.762 123.773 146.137 123.577 144.422L121.801 128.932L121.762 128.606C121.461 125.971 121.253 124.188 121.27 122.388C121.288 120.268 121.537 118.156 122.013 116.09C122.418 114.333 123.031 112.647 123.94 110.152L124.048 109.853L140.611 64.332ZM162.126 62.7792C161.037 62.3829 159.882 62.2049 158.725 62.2553C157.568 62.3057 156.432 62.5835 155.383 63.0729C154.333 63.5623 153.391 64.2537 152.608 65.1075C151.826 65.9614 151.22 66.961 150.824 68.0492L150.186 69.8027C150.352 69.9889 150.538 70.1983 150.737 70.4016C152.182 71.8877 154.461 73.7047 157.718 74.89C160.605 75.9512 163.712 76.2758 166.757 75.8343L167.396 74.0808C167.792 72.9927 167.97 71.8372 167.919 70.6803C167.869 69.5234 167.591 68.3877 167.102 67.3382C166.612 66.2887 165.921 65.3459 165.067 64.5637C164.213 63.7814 163.214 63.175 162.126 62.7792ZM162.739 86.8757C159.752 86.7328 156.805 86.1382 153.997 85.1124C151.186 84.0932 148.546 82.6541 146.167 80.8441L134.258 113.564C133.202 116.464 132.837 117.498 132.601 118.52C132.303 119.819 132.147 121.148 132.133 122.474C132.127 123.525 132.243 124.614 132.594 127.683L133.643 136.793L136.369 137.785L143.029 131.48C145.27 129.355 146.059 128.595 146.73 127.787C147.569 126.755 148.306 125.644 148.913 124.457C149.389 123.523 149.774 122.495 150.83 119.595L162.739 86.8757ZM75.2137 110.458C74.6042 109.151 74.5389 107.656 75.0321 106.301C75.5254 104.945 76.5367 103.842 77.8437 103.232L120.553 83.3164C121.86 82.707 123.356 82.6417 124.711 83.1349C126.066 83.6282 127.17 84.6395 127.78 85.9465C128.389 87.2535 128.454 88.7491 127.961 90.1042C127.468 91.4594 126.456 92.5631 125.149 93.1725L82.4397 113.088C81.1327 113.698 79.6371 113.763 78.282 113.27C76.9268 112.777 75.8231 111.765 75.2137 110.458ZM87.4696 136.741C86.8601 135.434 86.7948 133.939 87.2881 132.584C87.7813 131.228 88.7926 130.125 90.0996 129.515L106.526 121.855C107.833 121.246 109.329 121.181 110.684 121.674C112.039 122.167 113.143 123.178 113.753 124.485C114.362 125.792 114.427 127.288 113.934 128.643C113.441 129.998 112.429 131.102 111.122 131.711L94.6956 139.371C93.3886 139.981 91.893 140.046 90.5379 139.553C89.1828 139.06 88.079 138.048 87.4696 136.741ZM99.7255 163.024C99.116 161.717 99.0507 160.222 99.544 158.866C100.037 157.511 101.049 156.408 102.356 155.798L112.212 151.202C113.519 150.593 115.014 150.527 116.369 151.021C117.725 151.514 118.828 152.525 119.438 153.832C120.047 155.139 120.112 156.635 119.619 157.99C119.126 159.345 118.115 160.449 116.808 161.058L106.952 165.654C105.645 166.264 104.149 166.329 102.794 165.836C101.439 165.343 100.335 164.331 99.7255 163.024Z" fill="#D4D2D2" fill-opacity="0.12"/>
    </g>
    <defs>
    <clipPath id="clip0_1_176">
    <rect width="174" height="174" fill="white" transform="translate(0 73.5356) rotate(-25)"/>
    </clipPath>
    </defs>
    </svg>
    