<svg width="174" height="174" viewBox="0 0 174 174" fill="none" xmlns="http://www.w3.org/2000/svg">
    <path d="M60.6825 72.2825C61.3532 72.9546 62.1499 73.4879 63.027 73.8517C63.904 74.2155 64.8442 74.4028 65.7938 74.4028C66.7433 74.4028 67.6835 74.2155 68.5605 73.8517C69.4376 73.4879 70.2343 72.9546 70.905 72.2825H60.6825ZM60.6825 72.2825L55.535 67.135L60.6825 72.2825ZM88.3963 79.5514L90.5027 77.445L88.4113 75.3238L78.2613 65.0288L76.1549 62.8923L74.0186 64.9989L68.7986 70.1464L68.79 70.1549L68.7815 70.1634C68.3894 70.5563 67.9237 70.868 67.411 71.0806C66.8984 71.2933 66.3488 71.4028 65.7938 71.4028C65.2387 71.4028 64.6891 71.2933 64.1764 71.0806C63.6638 70.868 63.1981 70.5563 62.806 70.1634L62.8038 70.1612L57.6563 65.0137L57.6542 65.0116C57.2613 64.6195 56.9496 64.1538 56.7369 63.6411C56.5243 63.1284 56.4148 62.5788 56.4148 62.0238C56.4148 61.4688 56.5243 60.9192 56.7369 60.4065C56.9496 59.8938 57.2613 59.4281 57.6541 59.036L57.6563 59.0339L98.6913 17.9989L98.6935 17.9967C99.0856 17.6038 99.5513 17.2921 100.064 17.0795C100.577 16.8668 101.126 16.7573 101.681 16.7573C102.236 16.7573 102.786 16.8668 103.299 17.0795C103.811 17.2921 104.277 17.6038 104.669 17.9967L104.671 17.9989L109.819 23.1464C111.47 24.798 111.475 27.4563 109.832 29.1132L104.702 34.0986L102.527 36.2121L104.664 38.3639L114.959 48.7314L117.082 50.8698L119.211 48.7367C119.603 48.3438 120.069 48.0321 120.581 47.8195C121.094 47.6068 121.644 47.4973 122.199 47.4973C122.754 47.4973 123.303 47.6068 123.816 47.8195C124.329 48.0321 124.794 48.3438 125.187 48.7367L125.189 48.7389C126.845 50.3948 126.845 53.1353 125.189 54.7912L123.067 56.9125L125.189 59.0339L135.411 69.2564L137.533 71.3777L139.654 69.2564L144.801 64.1089C146.455 62.455 149.191 62.4529 150.848 64.1028C150.85 64.1048 150.852 64.1068 150.854 64.1089L155.914 69.2413L155.921 69.2488L155.929 69.2564C157.585 70.9123 157.585 73.6528 155.929 75.3087L114.966 116.271C113.31 117.927 110.57 117.927 108.914 116.271L103.839 111.196L103.824 111.181L103.808 111.166C103.408 110.777 103.089 110.311 102.872 109.796C102.654 109.282 102.542 108.729 102.542 108.17C102.542 107.611 102.654 107.058 102.872 106.544C103.089 106.029 103.408 105.563 103.808 105.174L103.831 105.152L103.854 105.129L108.929 99.9813L111.02 97.86L108.914 95.7537L98.6913 85.5312L96.57 83.4099L94.4487 85.5312L24.7762 155.204L24.774 155.206C24.3819 155.599 23.9162 155.91 23.4036 156.123C22.8909 156.336 22.3413 156.445 21.7863 156.445C21.2312 156.445 20.6816 156.336 20.169 156.123C19.6563 155.91 19.1906 155.599 18.7985 155.206L18.7963 155.204C17.1404 153.548 17.1404 150.807 18.7963 149.151L88.3963 79.5514ZM145 140.75C148.05 140.75 150.975 141.962 153.132 144.118C155.288 146.275 156.5 149.2 156.5 152.25V156.5H90V152.25C90 149.2 91.2116 146.275 93.3683 144.118C95.525 141.962 98.45 140.75 101.5 140.75H145Z" stroke="#D4D2D2" stroke-opacity="0.12" stroke-width="6"/>
    </svg>
    